<?xml version="1.0" encoding="UTF-8" standalone="no"?>
<!-- Created with Inkscape (http://www.inkscape.org/) -->

<svg
   xmlns:dc="http://purl.org/dc/elements/1.1/"
   xmlns:cc="http://creativecommons.org/ns#"
   xmlns:rdf="http://www.w3.org/1999/02/22-rdf-syntax-ns#"
   xmlns:svg="http://www.w3.org/2000/svg"
   xmlns="http://www.w3.org/2000/svg"
   xmlns:sodipodi="http://sodipodi.sourceforge.net/DTD/sodipodi-0.dtd"
   xmlns:inkscape="http://www.inkscape.org/namespaces/inkscape"
   width="170.64687mm"
   height="150.60461mm"
   viewBox="0 0 604.65425 533.63838"
   id="svg2"
   version="1.1"
   inkscape:version="0.91 r13725"
   sodipodi:docname="OnTheFly.svg">
  <defs
     id="defs4" />
  <sodipodi:namedview
     id="base"
     pagecolor="#ffffff"
     bordercolor="#666666"
     borderopacity="1.0"
     inkscape:pageopacity="0.0"
     inkscape:pageshadow="2"
     inkscape:zoom="0.7"
     inkscape:cx="271.18996"
     inkscape:cy="101.04583"
     inkscape:document-units="px"
     inkscape:current-layer="g4984"
     showgrid="false"
     inkscape:window-width="1600"
     inkscape:window-height="1145"
     inkscape:window-x="0"
     inkscape:window-y="-3"
     inkscape:window-maximized="1"
     fit-margin-top="0"
     fit-margin-left="0"
     fit-margin-right="0"
     fit-margin-bottom="0" />
  <metadata
     id="metadata7">
    <rdf:RDF>
      <cc:Work
         rdf:about="">
        <dc:format>image/svg+xml</dc:format>
        <dc:type
           rdf:resource="http://purl.org/dc/dcmitype/StillImage" />
        <dc:title></dc:title>
      </cc:Work>
    </rdf:RDF>
  </metadata>
  <g
     inkscape:label="Layer 1"
     inkscape:groupmode="layer"
     id="layer1"
     transform="translate(-107.53573,-78.469384)">
    <g
       id="g4310"
       transform="matrix(0.35668264,0,0,0.35668264,316.36452,365.24491)">
      <path
         inkscape:connector-curvature="0"
         id="rect4176-3-5"
         d="m 228.49895,540.39903 3.55506,8.69669 2.36873,-1.27796 38.39211,82.21241 14.28315,-6.67 -38.7781,-83.03829 39.51631,-21.31617 -3.55541,-8.69616 -55.78185,30.08948 z"
         style="opacity:1;fill:#666666;fill-opacity:1;stroke:#2d2d2d;stroke-width:4.13792992;stroke-linecap:round;stroke-miterlimit:4;stroke-dasharray:none;stroke-dashoffset:0;stroke-opacity:1" />
      <path
         inkscape:transform-center-y="202.9339"
         inkscape:transform-center-x="-117.14281"
         inkscape:connector-curvature="0"
         id="rect4176-2"
         d="m 65.93044,527.32635 1.98575,9.18301 2.55514,-0.84579 23.48386,87.64327 15.22667,-4.07992 -23.72008,-88.52376 42.62536,-14.10659 -1.98619,-9.18255 -60.17051,19.91233 z"
         style="opacity:1;fill:#666666;fill-opacity:1;stroke:#2d2d2d;stroke-width:4.13792992;stroke-linecap:round;stroke-miterlimit:4;stroke-dasharray:none;stroke-dashoffset:0;stroke-opacity:1" />
      <path
         inkscape:connector-curvature="0"
         id="rect4176-5-6"
         d="m 156.84358,532.15698 -5.08923,7.89751 2.40482,1.2087 -45.36756,78.57875 13.65182,7.88193 45.82313,-79.36838 40.11555,20.16582 5.0886,-7.89749 -56.62713,-28.46684 z"
         style="opacity:1;fill:#666666;fill-opacity:1;stroke:#2d2d2d;stroke-width:4.13792992;stroke-linecap:round;stroke-miterlimit:4;stroke-dasharray:none;stroke-dashoffset:0;stroke-opacity:1" />
      <ellipse
         ry="72.85714"
         rx="128.57143"
         cy="516.64795"
         cx="180"
         id="path4136"
         style="opacity:1;fill:#666666;fill-opacity:1;stroke:#2d2d2d;stroke-width:13.5;stroke-linecap:round;stroke-miterlimit:4;stroke-dasharray:none;stroke-dashoffset:0;stroke-opacity:1" />
      <circle
         r="70"
         cy="433.79077"
         cx="332.85715"
         id="path4138"
         style="opacity:1;fill:#666666;fill-opacity:1;stroke:#2d2d2d;stroke-width:13.5;stroke-linecap:round;stroke-miterlimit:4;stroke-dasharray:none;stroke-dashoffset:0;stroke-opacity:1" />
      <path
         inkscape:connector-curvature="0"
         id="rect4140"
         d="m 221.22894,350.44422 0,6.64204 34.33349,0 46.93135,23.96629 4.18831,-6.41614 -42.27647,-21.58918 0,-2.60301 -43.17668,0 z"
         style="opacity:1;fill:#666666;fill-opacity:1;stroke:#2d2d2d;stroke-width:3.92324352;stroke-linecap:round;stroke-miterlimit:4;stroke-dasharray:none;stroke-dashoffset:0;stroke-opacity:1" />
      <path
         inkscape:connector-curvature="0"
         id="rect4140-6"
         d="m 381.0102,300.12946 3.32102,5.75218 -29.73368,17.16674 -28.66059,44.22109 -6.83526,-3.46238 25.81791,-39.83502 -1.30151,-2.25427 37.39211,-21.58834 z"
         style="opacity:1;fill:#666666;fill-opacity:1;stroke:#2d2d2d;stroke-width:3.92324352;stroke-linecap:round;stroke-miterlimit:4;stroke-dasharray:none;stroke-dashoffset:0;stroke-opacity:1" />
      <path
         inkscape:connector-curvature="0"
         id="rect4176"
         d="m 75.10174,522.68493 -5.08923,7.89751 2.40482,1.20869 -45.36756,78.57875 13.65182,7.88194 45.82313,-79.36838 40.11554,20.16582 5.0886,-7.8975 -56.62712,-28.46683 z"
         style="opacity:1;fill:#666666;fill-opacity:1;stroke:#2d2d2d;stroke-width:4.13792992;stroke-linecap:round;stroke-miterlimit:4;stroke-dasharray:none;stroke-dashoffset:0;stroke-opacity:1" />
      <path
         inkscape:connector-curvature="0"
         id="rect4176-5"
         d="m 143.71883,544.53109 -0.45865,9.38406 2.68698,-0.15565 -8e-5,90.73497 15.76379,5e-5 -2e-4,-91.6466 44.824,-2.59366 0.45811,-9.38373 -63.27395,3.66056 z"
         style="opacity:1;fill:#666666;fill-opacity:1;stroke:#2d2d2d;stroke-width:4.13792992;stroke-linecap:round;stroke-miterlimit:4;stroke-dasharray:none;stroke-dashoffset:0;stroke-opacity:1" />
      <path
         inkscape:connector-curvature="0"
         id="rect4176-3"
         d="m 200.21616,550.1835 1.98575,9.18301 2.55514,-0.84579 23.48386,87.64327 15.22667,-4.07992 -23.72008,-88.52376 42.62536,-14.10659 -1.98619,-9.18255 -60.17051,19.91233 z"
         style="opacity:1;fill:#666666;fill-opacity:1;stroke:#2d2d2d;stroke-width:4.13792992;stroke-linecap:round;stroke-miterlimit:4;stroke-dasharray:none;stroke-dashoffset:0;stroke-opacity:1" />
      <path
         inkscape:connector-curvature="0"
         id="path4260"
         d="m 362.94465,385.35379 a 21.671565,27.540948 0 0 0 -16.64538,9.91525 21.671565,27.540948 0 0 0 -14.95899,-7.65788 21.671565,27.540948 0 0 0 -21.67183,27.54086 21.671565,27.540948 0 0 0 21.67183,27.54086 21.671565,27.540948 0 0 0 16.64476,-9.91526 21.671565,27.540948 0 0 0 14.95961,7.65789 21.671565,27.540948 0 0 0 21.6712,-27.54086 21.671565,27.540948 0 0 0 -21.6712,-27.54086 z"
         style="opacity:1;fill:#ba00ff;fill-opacity:1;stroke:#2d2d2d;stroke-width:4.26658964;stroke-linecap:round;stroke-miterlimit:4;stroke-dasharray:none;stroke-dashoffset:0;stroke-opacity:1" />
      <ellipse
         ry="49.719429"
         rx="191.77493"
         cy="464.77487"
         cx="71.246094"
         id="path4293"
         style="opacity:1;fill:#19aeff;fill-opacity:1;stroke:#2d2d2d;stroke-width:7.45791435;stroke-linecap:round;stroke-miterlimit:4;stroke-dasharray:none;stroke-dashoffset:0;stroke-opacity:1" />
      <ellipse
         transform="matrix(0.96592583,-0.25881905,0.25881905,0.96592583,0,0)"
         ry="49.719429"
         rx="191.77493"
         cy="513.37524"
         cx="-59.713902"
         id="path4293-2"
         style="opacity:1;fill:#19aeff;fill-opacity:1;stroke:#2d2d2d;stroke-width:7.45791435;stroke-linecap:round;stroke-miterlimit:4;stroke-dasharray:none;stroke-dashoffset:0;stroke-opacity:1" />
    </g>
    <g
       id="g4984"
       transform="translate(-770.50001,-184.45927)">
      <rect
         style="opacity:1;fill:#ffffff;fill-opacity:1;stroke:#2d2d2d;stroke-width:1.53279829;stroke-linecap:round;stroke-miterlimit:4;stroke-dasharray:none;stroke-dashoffset:0;stroke-opacity:1"
         id="rect5029-7"
         width="346.41391"
         height="10.676115"
         x="-1248.3604"
         y="434.9884"
         transform="matrix(-0.64346921,-0.76547199,0.71073995,-0.70345485,0,0)" />
      <g
         transform="matrix(0.35668264,0,0,0.35668264,966.94273,282.1303)"
         id="g4925">
        <rect
           style="fill:#804d00;stroke:none;stroke-width:0.81199998;stroke-miterlimit:4;stroke-dasharray:none"
           id="rect4833"
           width="14.285714"
           height="260"
           x="8.5714464"
           y="1000.9337" />
        <rect
           style="fill:#804d00;stroke:none;stroke-width:0.81199998;stroke-miterlimit:4;stroke-dasharray:none"
           id="rect4835"
           width="177.14285"
           height="20"
           x="9.4285631"
           y="1240.3622" />
        <rect
           style="fill:#804d00;stroke:none;stroke-width:0.81199998;stroke-miterlimit:4;stroke-dasharray:none"
           id="rect4835-3"
           width="177.14285"
           height="20"
           x="856.03241"
           y="916.43091"
           transform="matrix(0.75961027,0.65037853,-0.65037853,0.75961027,0,0)" />
        <rect
           style="fill:#804d00;stroke:none;stroke-width:0.81199998;stroke-miterlimit:4;stroke-dasharray:none"
           id="rect4835-3-6"
           width="177.14285"
           height="20"
           x="-929.25623"
           y="1016.6598"
           transform="matrix(0.72821092,-0.68535309,0.68535309,0.72821092,0,0)"
           inkscape:transform-center-x="71.428571"
           inkscape:transform-center-y="468.57143" />
        <path
           style="fill:#ffffff;stroke:#2d2d2d;stroke-width:2;stroke-miterlimit:4;stroke-dasharray:none"
           d="m 232.65844,1009.8546 c 29.02068,-29.02066 33.02483,-49.96957 33.05525,-70.35009 3e-5,-49.70507 -38.37472,-89.99924 -85.71289,-90.00005 l 4e-5,0 c -47.33893,-3.3e-4 -85.714883,40.29417 -85.714853,90.00005 0.0317,33.62071 17.907893,64.41959 46.351563,79.85929 l -7.72265,14.6543 -3.10352,-3.0937 -10.01758,12.8574 5.22852,5.2129 -79.242193,150.3691 8.89258,4.4278 -8.95898,0 0,22.8554 217.505863,0 -7.10352,213.8418 22.8457,0.7598 7.7793,-234.1563 -6.74023,-0.2246 0,-3.0761 -210.968753,0 72.765623,-138.0743 92.0332,91.7481 -1.35047,-0.9079 16.16211,-2.0879 1.34457,0.017 1.64844,-2.1153 -1.67383,-1.6679 -18.15653,-16.8212 m 0.44675,-0.8379 -82.56361,-82.3038 12.27929,-23.2989 c 5.92467,1.3553 11.96958,2.0467 18.03321,2.0626 19.17117,-0.01 39.21458,-8.1949 54.29771,-20.6201"
           id="path4867"
           inkscape:connector-curvature="0"
           sodipodi:nodetypes="cccccccccccccccccccccccccccccccccc" />
      </g>
      <rect
         style="opacity:1;fill:#ffffff;fill-opacity:1;stroke:#2d2d2d;stroke-width:1.97775543;stroke-linecap:round;stroke-miterlimit:4;stroke-dasharray:none;stroke-dashoffset:0;stroke-opacity:1"
         id="rect5029-7-0"
         width="446.10989"
         height="13.801994"
         x="354.28192"
         y="1210.512"
         transform="matrix(0.75182304,-0.65936494,0.68824094,0.72548219,0,0)" />
      <g
         transform="matrix(0.23243465,0,0,0.23243465,1120.8487,326.09372)"
         id="g4979">
        <path
           inkscape:connector-curvature="0"
           style="fill:#2d2d2d;stroke:#2d2d2d;stroke-width:2;stroke-miterlimit:4;stroke-dasharray:none"
           d="m -117.14258,1275.2188 0,240 31.427736,0 0,-29.1426 50.507813,0 118.064453,-85.6035 0,-43.377 -148.976563,-65.3047 -19.595703,0 0,-16.5722 -31.427736,0 z m 200.000002,202.6015 -11.386719,8.2559 11.386719,0 0,-8.2559 z"
           id="rect4951" />
        <rect
           style="fill:#2d2d2d;stroke:#2d2d2d;stroke-width:2;stroke-miterlimit:4;stroke-dasharray:none"
           id="rect4975"
           width="334.28571"
           height="57.142857"
           x="-162.85715"
           y="1575.2194" />
        <rect
           style="fill:#2d2d2d;stroke:#2d2d2d;stroke-width:2.81019068;stroke-miterlimit:4;stroke-dasharray:none"
           id="rect4977"
           width="30.618382"
           height="156.33267"
           x="14.690809"
           y="1427.053" />
      </g>
      <rect
         style="opacity:1;fill:#2d2d2d;fill-opacity:1;stroke:#2d2d2d;stroke-width:4.81521559;stroke-linecap:round;stroke-miterlimit:4;stroke-dasharray:none;stroke-dashoffset:0;stroke-opacity:1"
         id="rect5025"
         width="35.668262"
         height="8.1527462"
         x="551.87341"
         y="1132.9546"
         transform="matrix(0.8660254,-0.5,0.5,0.8660254,0,0)"
         inkscape:transform-center-x="405.59917"
         inkscape:transform-center-y="-94.775673" />
      <rect
         style="opacity:1;fill:#ffffff;fill-opacity:1;stroke:#2d2d2d;stroke-width:8.07012081;stroke-linecap:round;stroke-miterlimit:4;stroke-dasharray:none;stroke-dashoffset:0;stroke-opacity:1"
         id="rect5027"
         width="585.42993"
         height="304.00131"
         x="882.0708"
         y="266.96368" />
      <text
         xml:space="preserve"
         style="font-style:normal;font-weight:normal;font-size:31.73209953px;line-height:125%;font-family:sans-serif;letter-spacing:0px;word-spacing:0px;fill:#000000;fill-opacity:1;stroke:none;stroke-width:1px;stroke-linecap:butt;stroke-linejoin:miter;stroke-opacity:1"
         x="892.85718"
         y="304.31311"
         id="text4341"
         sodipodi:linespacing="125%"><tspan
           sodipodi:role="line"
           id="tspan4343"
           x="892.85718"
           y="304.31311"
           style="font-style:normal;font-variant:normal;font-weight:normal;font-stretch:normal;font-family:FreeMono;-inkscape-font-specification:FreeMono"><tspan
   style="fill:#005c94"
   id="tspan4367">if</tspan> system == <tspan
   style="fill:#009100"
   id="tspan4369">&quot;Linux&quot;</tspan>:</tspan><tspan
           sodipodi:role="line"
           x="892.85718"
           y="343.97824"
           id="tspan4357"
           style="font-style:normal;font-variant:normal;font-weight:normal;font-stretch:normal;font-family:FreeMono;-inkscape-font-specification:FreeMono">    linux_build()</tspan><tspan
           sodipodi:role="line"
           x="892.85718"
           y="383.64337"
           id="tspan4345"
           style="font-style:normal;font-variant:normal;font-weight:normal;font-stretch:normal;font-family:FreeMono;-inkscape-font-specification:FreeMono"><tspan
   style="fill:#005c94"
   id="tspan4379">elif</tspan> system == <tspan
   style="fill:#009100"
   id="tspan4371">&quot;Mac&quot;</tspan>:</tspan><tspan
           sodipodi:role="line"
           x="892.85718"
           y="423.30847"
           id="tspan4353"
           style="font-style:normal;font-variant:normal;font-weight:normal;font-stretch:normal;font-family:FreeMono;-inkscape-font-specification:FreeMono;fill:#666666">    #Pretend it's Linux</tspan><tspan
           sodipodi:role="line"
           x="892.85718"
           y="462.9736"
           id="tspan4355"
           style="font-style:normal;font-variant:normal;font-weight:normal;font-stretch:normal;font-family:FreeMono;-inkscape-font-specification:FreeMono">    linux_build()</tspan><tspan
           sodipodi:role="line"
           x="892.85718"
           y="502.63873"
           id="tspan4347"
           style="font-style:normal;font-variant:normal;font-weight:normal;font-stretch:normal;font-family:FreeMono;-inkscape-font-specification:FreeMono"><tspan
   style="fill:#005c94"
   id="tspan4377">else</tspan>:</tspan><tspan
           sodipodi:role="line"
           x="892.85718"
           y="542.30383"
           id="tspan4351"
           style="font-style:normal;font-variant:normal;font-weight:normal;font-stretch:normal;font-family:FreeMono;-inkscape-font-specification:FreeMono"><tspan
   style="fill:#005c94"
   id="tspan4375">    raise</tspan> Exception(<tspan
   style="fill:#009100"
   id="tspan4373">&quot;Bad OS&quot;</tspan>)  </tspan><tspan
           sodipodi:role="line"
           x="892.85718"
           y="581.96899"
           id="tspan4349"
           style="font-style:normal;font-variant:normal;font-weight:normal;font-stretch:normal;font-family:FreeMono;-inkscape-font-specification:FreeMono" /></text>
    </g>
  </g>
</svg>
